<?xml version="1.0" encoding="utf-8"?>
<!-- Generator: Adobe Illustrator 24.1.2, SVG Export Plug-In . SVG Version: 6.00 Build 0)  -->
<svg version="1.1" id="Layer_1" xmlns="http://www.w3.org/2000/svg" xmlns:xlink="http://www.w3.org/1999/xlink" x="0px" y="0px"
	 viewBox="0 0 15 15" style="enable-background:new 0 0 15 15;" xml:space="preserve">
<style type="text/css">
	.st0{fill:#289DA1;}
	.st1{fill:#FFFFFF;}
</style>
<g>
	<g>
		<path class="st0" d="M14.25,7.5c0-3.73-3.02-6.75-6.75-6.75S0.75,3.77,0.75,7.5c0,3.37,2.47,6.16,5.7,6.67V9.45H4.73V7.5h1.71
			V6.01c0-1.69,1.01-2.63,2.55-2.63c0.74,0,1.51,0.13,1.51,0.13v1.66H9.66c-0.84,0-1.1,0.52-1.1,1.05V7.5h1.87l-0.3,1.95H8.56v4.72
			C11.78,13.66,14.25,10.87,14.25,7.5z"/>
		<path class="st1" d="M10.13,9.45l0.3-1.95H8.56V6.23c0-0.53,0.26-1.05,1.1-1.05h0.85V3.52c0,0-0.77-0.13-1.51-0.13
			c-1.54,0-2.55,0.93-2.55,2.63V7.5H4.73v1.95h1.71v4.72c0.34,0.05,0.7,0.08,1.06,0.08s0.71-0.03,1.06-0.08V9.45H10.13z"/>
	</g>
</g>
</svg>
