<?xml version="1.0" encoding="utf-8"?>
<!-- Generator: Adobe Illustrator 24.1.2, SVG Export Plug-In . SVG Version: 6.00 Build 0)  -->
<svg version="1.1" id="Layer_1" xmlns="http://www.w3.org/2000/svg" xmlns:xlink="http://www.w3.org/1999/xlink" x="0px" y="0px"
	 viewBox="0 0 263.48 492.18" style="enable-background:new 0 0 263.48 492.18;" xml:space="preserve">
<style type="text/css">
	.st0{fill:#FFD431;}
	.st1{fill:#80C8BB;stroke:#020203;stroke-width:5.6693;stroke-linecap:round;stroke-linejoin:round;stroke-miterlimit:10;}
	.st2{fill:#FFFFFF;}
	.st3{fill:#020203;stroke:#020203;stroke-width:7.2257;stroke-linejoin:round;stroke-miterlimit:10;}
	.st4{fill:#80C8BB;stroke:#020203;stroke-width:7.2257;stroke-linecap:round;stroke-linejoin:round;stroke-miterlimit:10;}
	.st5{fill:#F2939C;stroke:#020203;stroke-width:8.1865;stroke-linecap:round;stroke-linejoin:round;stroke-miterlimit:10;}
	.st6{fill:#EE8584;stroke:#020203;stroke-width:5.7279;stroke-miterlimit:10;}
	.st7{fill:#289DA1;stroke:#020203;stroke-width:5.7279;stroke-miterlimit:10;}
	.st8{fill:#80C8BB;stroke:#020203;stroke-width:5.7279;stroke-miterlimit:10;}
	.st9{fill:none;stroke:#020203;stroke-width:5.7279;stroke-linecap:round;stroke-linejoin:round;stroke-miterlimit:10;}
	.st10{fill:#EE8584;stroke:#020203;stroke-width:5.6693;stroke-miterlimit:10;}
	.st11{fill:#FFD431;stroke:#020203;stroke-width:5.6693;stroke-miterlimit:10;}
	.st12{fill:none;stroke:#020203;stroke-width:5.6693;stroke-miterlimit:10;}
</style>
<rect x="-7.15" y="-6.74" class="st0" width="515.1" height="515.1"/>
<circle class="st1" cx="26.06" cy="146.6" r="116.26"/>
<g>
	<path class="st6" d="M235.66,492.51c-22.39,0-44.78-0.06-67.17,0.05c-4.27,0.02-6.63-1.03-7.82-5.71
		c-4.03-15.96-15.35-23.15-31.08-24.76c-1.21-0.12-3.39-2.49-3.17-3.1c4.51-12.44,1.1-24.46-1.12-36.72
		c-2.71-14.97-6.25-30.12-6.23-45.19c0.05-30.2,14.23-53.43,39.66-69.95c16.09-10.45,33.78-16,52.45-19.31
		c1.78-0.32,4.33-3.07,4.46-4.84c1.59-22.45,2.81-44.92,4.11-67.39c2.02-34.87,3.99-69.74,6.18-104.6c0.09-1.39,2.18-2.66,3.34-3.99
		c1.04,1.34,2.97,2.66,2.99,4.02c0.45,29.77,0.95,59.55,0.89,89.32c-0.06,33.31-0.61,66.62-1.02,99.93
		c-0.61,50.29-1.26,100.59-1.95,150.88c-0.15,10.92-0.48,21.84-0.89,32.75c-0.17,4.5,1.39,6.44,6.16,6.07
		c5.02-0.39,10.14-0.54,15.13,0.02c5.44,0.61,6.33-2.43,6.36-6.48c0.09-9.09,0.11-18.18,0-27.27c-0.21-18.45-0.6-36.9-0.78-55.35
		c-0.37-36.18-0.59-72.36-1.05-108.53c-0.06-4.35,0.98-5.98,5.6-5.63c47.11,3.63,84.71,32.19,90.97,80.11
		c2.05,15.73-2.21,32.3-3.68,48.48c-1.13,12.42-2.4,24.82-3.59,37.23c-0.05,0.5,0.02,1.01,0.11,1.51c0.61,3.43,1.24,6.87,1.86,10.3
		c-3.66,0.25-7.32,0.46-10.97,0.75c-12.63,1-21.73,8.36-24.6,20.9c-1.24,5.45-3.74,6.72-8.99,6.65
		c-22.05-0.29-44.11-0.12-66.16-0.12C235.66,492.53,235.66,492.52,235.66,492.51z"/>
	<path class="st7" d="M241.45,30.84c0,18.31-0.07,36.61,0.1,54.92c0.02,2.08,0.8,5.22,2.24,6.01c5.13,2.82,5.74,6.93,5.78,12.18
		c0.28,36.5,0.9,72.99,1.2,109.49c0.02,2.05-1.84,4.12-2.82,6.18c-1.07-2-2.77-3.92-3.07-6.03c-0.51-3.63,0.29-7.46-0.34-11.05
		c-0.34-1.94-2.7-3.44-3.83-5.34c-1.07-1.79-2.4-3.82-2.45-5.77c-0.61-27.58-1.13-55.16-1.38-82.74c-0.04-4.59-1.32-6.69-5.99-6.05
		c-4.21,0.58-5.41-1.18-5.38-5.39c0.24-29.77,0.42-59.55,0.14-89.32c-0.06-6.77,3.61-6.14,7.97-6.15c4.47-0.01,8.36-0.37,7.82,6.35
		c-0.6,7.52-0.14,15.13-0.14,22.7C241.36,30.84,241.4,30.84,241.45,30.84z"/>
	<path class="st8" d="M288.92,55.68c0,7.28-10.06,13.88-16.85,11.02c-0.58-0.24-1.48-0.79-1.47-1.19c0.08-7.37-5.37-5.03-9.38-5.79
		c-1.36-0.26-3.16-2.93-3.13-4.46c0.03-1.54,1.87-4.06,3.3-4.37c3.93-0.86,9.65,1.7,8.97-6.03c-0.04-0.43,1.07-1.2,1.76-1.42
		C279.59,41.15,288.92,47.99,288.92,55.68z"/>
	<path class="st8" d="M273.45,101.41c-0.3-0.09-2.63-0.48-2.63-0.85c0.05-7.48-5.45-5.72-9.78-6.5c-0.93-0.17-1.85-3.55-1.71-5.36
		c0.09-1.13,2.13-2.96,3.36-3.01c4.18-0.17,8.4,0.42,7.6-6.02c-0.06-0.49,1.82-1.7,2.85-1.78c8.47-0.66,15.56,4.76,15.82,11.92
		C289.23,97.16,283.82,101.5,273.45,101.41z"/>
	<path class="st8" d="M188.63,80.63c0-7.28,10.06-13.88,16.85-11.02c0.58,0.24,1.48,0.79,1.47,1.19c-0.08,7.37,5.37,5.03,9.38,5.79
		c1.36,0.26,3.16,2.93,3.13,4.46c-0.03,1.54-1.87,4.06-3.3,4.37c-3.93,0.86-9.65-1.7-8.97,6.03c0.04,0.43-1.07,1.2-1.76,1.42
		C197.95,95.16,188.63,88.33,188.63,80.63z"/>
	<path class="st8" d="M204.09,34.91c0.3,0.09,2.63,0.48,2.63,0.85c-0.05,7.48,5.45,5.72,9.78,6.5c0.93,0.17,1.85,3.55,1.71,5.36
		c-0.09,1.13-2.13,2.96-3.36,3.01c-4.18,0.17-8.4-0.42-7.6,6.02c0.06,0.49-1.82,1.7-2.85,1.78c-8.47,0.66-15.56-4.76-15.82-11.92
		C188.31,39.16,193.73,34.82,204.09,34.91z"/>
	<line class="st9" x1="250.83" y1="206.72" x2="255.18" y2="294.74"/>
	<line class="st9" x1="242.38" y1="201.36" x2="243.49" y2="489.86"/>
</g>
<circle class="st10" cx="26.06" cy="103.08" r="116.26"/>
<circle class="st11" cx="1.73" cy="75.89" r="15.69"/>
<circle class="st11" cx="34.85" cy="117.73" r="15.69"/>
<line class="st12" x1="70.09" y1="-44.46" x2="1.73" y2="75.89"/>
<line class="st12" x1="164.61" y1="71.56" x2="34.37" y2="118.42"/>
</svg>
