<?xml version="1.0" encoding="utf-8"?>
<!-- Generator: Adobe Illustrator 24.1.2, SVG Export Plug-In . SVG Version: 6.00 Build 0)  -->
<svg version="1.1" id="Layer_1" xmlns="http://www.w3.org/2000/svg" xmlns:xlink="http://www.w3.org/1999/xlink" x="0px" y="0px"
	 viewBox="0 0 263.48 492.18" style="enable-background:new 0 0 263.48 492.18;" xml:space="preserve">
<style type="text/css">
	.st0{fill:#FFD431;}
	.st1{fill:#80C8BB;stroke:#020203;stroke-width:5.6693;stroke-linecap:round;stroke-linejoin:round;stroke-miterlimit:10;}
	.st2{fill:#FFFFFF;}
	.st3{fill:#020203;stroke:#020203;stroke-width:7.2257;stroke-linejoin:round;stroke-miterlimit:10;}
	.st4{fill:#80C8BB;stroke:#020203;stroke-width:7.2257;stroke-linecap:round;stroke-linejoin:round;stroke-miterlimit:10;}
	.st5{fill:#F2939C;stroke:#020203;stroke-width:8.1865;stroke-linecap:round;stroke-linejoin:round;stroke-miterlimit:10;}
	.st6{fill:#EE8584;stroke:#020203;stroke-width:5.7279;stroke-miterlimit:10;}
	.st7{fill:#289DA1;stroke:#020203;stroke-width:5.7279;stroke-miterlimit:10;}
	.st8{fill:#80C8BB;stroke:#020203;stroke-width:5.7279;stroke-miterlimit:10;}
	.st9{fill:none;stroke:#020203;stroke-width:5.7279;stroke-linecap:round;stroke-linejoin:round;stroke-miterlimit:10;}
	.st10{fill:#EE8584;stroke:#020203;stroke-width:5.6693;stroke-miterlimit:10;}
	.st11{fill:#FFD431;stroke:#020203;stroke-width:5.6693;stroke-miterlimit:10;}
	.st12{fill:none;stroke:#020203;stroke-width:5.6693;stroke-miterlimit:10;}
</style>
<rect x="-7.15" y="-6.74" class="st0" width="515.1" height="515.1"/>
<rect x="-7.15" y="-6.74" class="st2" width="169.11" height="512.76"/>
<g>
	<path class="st3" d="M162.93,505.96c-4.59,1.29-6.36-0.58-5.67-5.12c0.73-4.82-1.34-5.99-6.06-5.95c-28.67,0.23-57.34-0.01-86,0.18
		c-9.01,0.06-13.31-3.64-13.62-12.8c-0.06-1.78-3.46-4.91-5.37-4.95c-18.89-0.36-37.79-0.13-56.69-0.32
		c-1.68-0.02-3.35-1.78-5.02-2.73c1.63-1.03,3.25-2.95,4.89-2.97c18.68-0.22,37.37-0.31,56.06-0.06c5.08,0.07,6.92-1.63,6.41-6.6
		c-0.3-2.94,0.01-5.94,0.06-8.91c0.13-7.94,4.27-11.35,12.1-11.33c28.88,0.1,57.76-0.09,86.64,0.12c5.23,0.04,7.62-1.31,6.62-6.75
		c-0.19-1.03-0.05-2.12-0.06-3.18c-0.13-21.4-0.13-21.4-21.25-21.4c-48.42,0-96.83,0.04-145.25-0.12c-2.06-0.01-4.11-1.85-6.16-2.83
		c2.13-0.98,4.25-2.81,6.38-2.82c53.09-0.15,106.18-0.23,159.26,0.06c6.14,0.03,7.46-1.83,7.14-7.46
		c-0.46-8.26-0.49-16.58,0.01-24.83c0.35-5.79-1.31-7.54-7.27-7.48c-27.6,0.3-55.21,0.15-82.82,0.08
		c-12.22-0.03-13.92-1.83-15.75-13.93c-0.24-1.58-3.41-3.85-5.26-3.88c-18.68-0.29-37.37-0.11-56.06-0.31
		c-1.91-0.02-3.81-1.71-5.71-2.62c1.81-0.98,3.62-2.79,5.44-2.81c18.47-0.21,36.95-0.26,55.42-0.04c4.81,0.06,7.21-1.07,6.47-6.35
		c-0.35-2.49,0.02-5.09,0.06-7.63c0.17-9.98,3.61-13.39,13.47-13.38c28.46,0.02,56.91-0.03,85.36,0.13
		c4.47,0.03,7.12-0.32,6.73-6.02c-0.33-4.85-0.51-7.43-6.79-7.34c-28.45,0.42-56.91,0.1-85.36,0.21
		c-8.81,0.04-13.38-3.52-13.75-12.76c-0.07-1.85-3.82-5.04-5.93-5.09c-17.83-0.4-35.67-0.1-53.51-0.34
		c-2.55-0.03-5.07-1.87-7.6-2.87c2.38-1.04,4.75-2.94,7.15-2.98c18.05-0.26,36.1-0.31,54.15-0.05c4.65,0.07,6.68-1.01,6.03-5.93
		c-0.36-2.71,0.05-5.51,0.02-8.27c-0.1-8.75,4.15-12.75,12.93-12.61c12.31,0.2,24.64,0.22,36.94-0.19c1.72-0.06,4.63-2.98,4.74-4.72
		c0.22-3.33,2.27-8.55-4.92-8.37c-12.1,0.3-24.21,0-36.31,0.07c-8.65,0.05-13.58-3.29-13.7-12.76c-0.02-1.78-3.81-5-5.91-5.04
		c-18.68-0.39-37.37-0.15-56.05-0.34c-1.7-0.02-3.37-1.76-5.06-2.71c1.69-0.95,3.38-2.71,5.08-2.73c18.47-0.2,36.95-0.31,55.42-0.02
		c5.16,0.08,7.54-1.15,6.83-6.65c-0.35-2.71-0.13-5.52-0.04-8.27c0.28-8.15,4.07-12.37,12.7-12.32c29.09,0.16,58.18-0.04,87.28,0.14
		c4.4,0.03,5.93-1.04,5.71-5.61c-0.39-8.05-0.14-16.13-0.16-24.19c-2.43-0.88-4.87-2.55-7.3-2.55
		c-52.04-0.15-104.07-0.1-156.11-0.18c-3.13,0-6.25-0.78-9.37-1.19c1.84-1.15,3.68-3.31,5.53-3.32c53.5-0.2,107-0.29,160.49-0.06
		c5.91,0.03,7.15-1.85,6.9-7.23c-0.42-8.9-0.37-17.84-0.01-26.74c0.2-4.97-1.28-6.55-6.41-6.51c-28.45,0.24-56.9-0.02-85.34,0.21
		c-9.12,0.07-13.98-3.16-14.16-12.86c-0.03-1.71-3.55-4.78-5.51-4.83C27.37,93.57,8.68,93.78-10,93.53
		c-1.84-0.02-3.66-1.93-5.48-2.96c1.82-0.9,3.64-2.57,5.47-2.59c18.68-0.2,37.37,0.04,56.04-0.38c1.95-0.04,4.43-3.26,5.55-5.55
		c0.92-1.88,0.17-4.58,0.2-6.91c0.13-11.23,3.18-14.18,14.57-14.18c28.24,0.01,56.47-0.12,84.7,0.12c5.03,0.04,6.55-1.33,6.49-6.4
		c-0.05-5.01-1.05-7.04-6.65-6.98c-27.81,0.28-55.62,0.03-83.43,0.18c-9.32,0.05-16.88-2.48-15.89-13.87
		c0.11-1.22-3.65-3.95-5.65-3.98C27.03,29.71,8.14,29.9-10.76,29.7c-1.57-0.02-3.13-1.85-4.69-2.84c1.63-1.04,3.24-2.97,4.88-2.98
		C8.32,23.66,27.22,23.9,46.1,23.5c1.93-0.04,5.36-3.41,5.42-5.33C52.27-2.97,52.47-3.3,73.86-3.31
		c29.71-0.02,59.42-0.07,89.12-0.11c-0.06,61.97-0.07,123.94-0.28,185.91c-0.02,4.83,1.46,6.32,6.23,7.13
		c22.69,3.87,37.32,16.97,43.06,39.46c8.61,33.76-10.73,63.8-44.29,69.47c-1.92,0.32-4.65,4.06-4.66,6.22
		C162.82,371.83,162.9,438.89,162.93,505.96z M157.35,243.71c0-14.43,0.2-28.86-0.26-43.27c-0.06-1.74-3.85-5-5.62-4.81
		c-22.91,2.42-39.44,23.37-39.38,49.31c0.05,23.93,17.58,44.79,39.65,47.49c4.67,0.57,5.78-0.97,5.71-5.44
		C157.19,272.56,157.35,258.14,157.35,243.71z M162.79,244.37c0,13.8,0.29,27.62-0.13,41.41c-0.2,6.57,2.34,7.5,7.96,6.25
		c22.4-4.98,37.3-24.12,37.33-48.28c0.03-24.21-14.67-42.79-37.49-47.96c-5.6-1.27-7.83-0.16-7.73,5.9
		C162.99,215.91,162.82,230.14,162.79,244.37z"/>
	<path class="st4" d="M162.07,505.96c-0.03-67.06-0.11-134.13,0.1-201.19c0.01-2.16,2.74-5.89,4.66-6.22
		c33.56-5.67,52.91-35.71,44.29-69.47c-5.74-22.49-20.37-35.59-43.06-39.46c-4.77-0.81-6.24-2.3-6.23-7.13
		c0.21-61.97,0.22-123.94,0.28-185.91c7.29,0.02,14.57,0.03,21.86,0.05c0.02,27.6,0.31,55.21-0.11,82.8
		c-0.11,7.05,1.89,10.04,8.88,11.45c23.2,4.67,45.11,12.58,64.86,26.19c40.91,28.19,47.88,78.63,31.5,117.24
		c-10.86,25.6-14.59,51.21-8.92,78.11c1.42,6.76-0.24,9.99-5.85,13.21c-19.29,11.09-33.85,27-43.2,47.02
		c-21.42,45.87-15.57,88.42,17.02,127.29c1.1,1.31,0.75,3.84,1.08,5.8C220.18,505.81,191.13,505.89,162.07,505.96z"/>
	<path class="st5" d="M161.96,244.43c0.01-16.12,0.21-32.24-0.08-48.36c-0.12-6.87,2.41-8.12,8.75-6.68
		c25.86,5.86,42.51,26.92,42.48,54.34c-0.03,27.37-16.92,49.06-42.29,54.7c-6.37,1.42-9.25,0.36-9.02-7.08
		C162.28,275.72,161.95,260.07,161.96,244.43z"/>
</g>
</svg>
