<?xml version="1.0" encoding="utf-8"?>
<!-- Generator: Adobe Illustrator 24.1.2, SVG Export Plug-In . SVG Version: 6.00 Build 0)  -->
<svg version="1.1" id="Layer_1" xmlns="http://www.w3.org/2000/svg" xmlns:xlink="http://www.w3.org/1999/xlink" x="0px" y="0px"
	 viewBox="0 0 15 15" style="enable-background:new 0 0 15 15;" xml:space="preserve">
<style type="text/css">
	.st0{fill:#289DA1;}
	.st1{fill:#FFFFFF;}
</style>
<g>
	<circle class="st0" cx="7.5" cy="7.5" r="6.75"/>
	<g>
		<g>
			<path class="st1" d="M9.6,4.95c-0.26,0-0.46,0.21-0.46,0.46c0,0.26,0.21,0.46,0.46,0.46c0.26,0,0.46-0.21,0.46-0.46
				C10.06,5.15,9.85,4.95,9.6,4.95z"/>
			<path class="st1" d="M7.53,5.54c-1.08,0-1.95,0.87-1.95,1.95c0,1.08,0.87,1.95,1.95,1.95s1.95-0.87,1.95-1.95
				C9.48,6.42,8.61,5.54,7.53,5.54z M7.53,8.74c-0.69,0-1.25-0.56-1.25-1.25c0-0.69,0.56-1.25,1.25-1.25c0.69,0,1.25,0.56,1.25,1.25
				C8.78,8.18,8.22,8.74,7.53,8.74z"/>
			<path class="st1" d="M9.08,11.45H5.92c-1.31,0-2.38-1.07-2.38-2.38V5.91c0-1.31,1.07-2.38,2.38-2.38h3.16
				c1.31,0,2.38,1.07,2.38,2.38v3.16C11.46,10.38,10.39,11.45,9.08,11.45z M5.92,4.28c-0.9,0-1.63,0.73-1.63,1.63v3.16
				c0,0.9,0.73,1.63,1.63,1.63h3.16c0.9,0,1.63-0.73,1.63-1.63V5.91c0-0.9-0.73-1.63-1.63-1.63H5.92z"/>
		</g>
	</g>
</g>
</svg>
