<?xml version="1.0" encoding="utf-8"?>
<!-- Generator: Adobe Illustrator 24.1.2, SVG Export Plug-In . SVG Version: 6.00 Build 0)  -->
<svg version="1.1" id="Layer_1" xmlns="http://www.w3.org/2000/svg" xmlns:xlink="http://www.w3.org/1999/xlink" x="0px" y="0px"
	 viewBox="0 0 15 15" style="enable-background:new 0 0 15 15;" xml:space="preserve">
<style type="text/css">
	.st0{fill:#289DA1;}
	.st1{fill:#FFFFFF;}
</style>
<g>
	<circle class="st0" cx="7.5" cy="7.5" r="6.75"/>
	<path class="st1" d="M11.23,5.19C11,5.29,10.74,5.36,10.49,5.4c0.12-0.02,0.3-0.24,0.37-0.32c0.11-0.13,0.2-0.29,0.25-0.45
		c0.01-0.01,0.01-0.03,0-0.04c-0.02-0.01-0.03,0-0.04,0c-0.28,0.15-0.57,0.26-0.88,0.34c-0.03,0.01-0.04,0-0.06-0.02
		c-0.03-0.03-0.05-0.06-0.08-0.08c-0.13-0.11-0.27-0.2-0.43-0.26C9.4,4.48,9.18,4.45,8.95,4.46C8.74,4.48,8.52,4.54,8.33,4.64
		c-0.19,0.1-0.37,0.24-0.5,0.41c-0.14,0.18-0.25,0.38-0.3,0.6C7.48,5.86,7.48,6.07,7.51,6.28c0,0.04,0,0.04-0.03,0.04
		C6.27,6.14,5.26,5.7,4.45,4.77c-0.04-0.04-0.05-0.04-0.08,0C4.01,5.31,4.18,6.17,4.63,6.6c0.06,0.06,0.12,0.11,0.19,0.16
		c-0.02,0-0.32-0.03-0.59-0.16C4.19,6.57,4.17,6.59,4.17,6.63c0,0.06,0,0.11,0.01,0.17c0.07,0.54,0.44,1.04,0.96,1.24
		C5.2,8.07,5.27,8.09,5.33,8.1C5.22,8.13,5.1,8.14,4.76,8.12C4.72,8.11,4.7,8.13,4.72,8.17c0.25,0.69,0.8,0.89,1.21,1.01
		C5.98,9.19,6.03,9.19,6.09,9.2c0,0-0.01,0-0.01,0.01C5.94,9.42,5.47,9.57,5.26,9.65C4.86,9.79,4.42,9.85,4,9.81
		c-0.07-0.01-0.08-0.01-0.1,0c-0.02,0.01,0,0.03,0.02,0.04c0.09,0.06,0.17,0.11,0.26,0.15c0.27,0.14,0.55,0.25,0.84,0.33
		c1.5,0.42,3.2,0.11,4.33-1.01c0.89-0.88,1.2-2.1,1.2-3.31c0-0.05,0.06-0.07,0.09-0.1c0.23-0.17,0.42-0.38,0.59-0.61
		c0.04-0.05,0.04-0.1,0.04-0.12c0,0,0-0.01,0-0.01C11.26,5.17,11.26,5.17,11.23,5.19z"/>
</g>
<g>
	<circle class="st0" cx="31.53" cy="7.5" r="6.75"/>
	<g>
		<g>
			<path class="st1" d="M33.62,4.95c-0.26,0-0.46,0.21-0.46,0.46c0,0.26,0.21,0.46,0.46,0.46c0.26,0,0.46-0.21,0.46-0.46
				C34.09,5.15,33.88,4.95,33.62,4.95z"/>
			<path class="st1" d="M31.56,5.54c-1.08,0-1.95,0.87-1.95,1.95c0,1.08,0.87,1.95,1.95,1.95c1.08,0,1.95-0.87,1.95-1.95
				C33.51,6.42,32.63,5.54,31.56,5.54z M31.56,8.74c-0.69,0-1.25-0.56-1.25-1.25c0-0.69,0.56-1.25,1.25-1.25
				c0.69,0,1.25,0.56,1.25,1.25C32.81,8.18,32.25,8.74,31.56,8.74z"/>
			<path class="st1" d="M33.11,11.45h-3.16c-1.31,0-2.38-1.07-2.38-2.38V5.91c0-1.31,1.07-2.38,2.38-2.38h3.16
				c1.31,0,2.38,1.07,2.38,2.38v3.16C35.49,10.38,34.42,11.45,33.11,11.45z M29.95,4.28c-0.9,0-1.63,0.73-1.63,1.63v3.16
				c0,0.9,0.73,1.63,1.63,1.63h3.16c0.9,0,1.63-0.73,1.63-1.63V5.91c0-0.9-0.73-1.63-1.63-1.63H29.95z"/>
		</g>
	</g>
</g>
<g>
	<g>
		<path class="st0" d="M-8.31,7.5c0-3.73-3.02-6.75-6.75-6.75s-6.75,3.02-6.75,6.75c0,3.37,2.47,6.16,5.7,6.67V9.45h-1.71V7.5h1.71
			V6.01c0-1.69,1.01-2.63,2.55-2.63c0.74,0,1.51,0.13,1.51,0.13v1.66h-0.85c-0.84,0-1.1,0.52-1.1,1.05V7.5h1.87l-0.3,1.95h-1.57
			v4.72C-10.78,13.66-8.31,10.87-8.31,7.5z"/>
		<path class="st1" d="M-12.43,9.45l0.3-1.95h-1.87V6.23c0-0.53,0.26-1.05,1.1-1.05h0.85V3.52c0,0-0.77-0.13-1.51-0.13
			c-1.54,0-2.55,0.93-2.55,2.63V7.5h-1.71v1.95h1.71v4.72c0.34,0.05,0.7,0.08,1.06,0.08s0.71-0.03,1.06-0.08V9.45H-12.43z"/>
	</g>
</g>
</svg>
